<?xml version="1.0" encoding="UTF-8"?>
<svg xmlns="http://www.w3.org/2000/svg" width="64" height="64" viewBox="0 0 64 64">
  <!-- 背景 -->
  <circle cx="32" cy="32" r="30" fill="#000814" />
  
  <!-- 大脑外形轮廓 -->
  <path
    d="M32,56 C20,56 12,48 12,32 C12,16 20,8 32,8 C44,8 52,16 52,32 C52,48 44,56 32,56"
    fill="none"
    stroke="#0ba6d1"
    stroke-width="2"
    stroke-linecap="round"
  />
  
  <!-- 左脑区域 -->
  <path
    d="M18,20 C16,24 15,28 15,32 C15,36 16,40 18,44"
    fill="none"
    stroke="#0ba6d1"
    stroke-width="1.5"
    stroke-linecap="round"
  />
  
  <!-- 右脑区域 -->
  <path
    d="M46,20 C48,24 49,28 49,32 C49,36 48,40 46,44"
    fill="none"
    stroke="#0ba6d1"
    stroke-width="1.5"
    stroke-linecap="round"
  />
  
  <!-- 脑区连接 -->
  <path
    d="M18,24 C22,22 42,22 46,24"
    fill="none"
    stroke="#0ba6d1"
    stroke-width="1.5"
    stroke-linecap="round"
  />
  
  <path
    d="M18,32 C22,30 42,30 46,32"
    fill="none"
    stroke="#0ba6d1"
    stroke-width="1.5"
    stroke-linecap="round"
  />
  
  <path
    d="M18,40 C22,38 42,38 46,40"
    fill="none"
    stroke="#0ba6d1"
    stroke-width="1.5"
    stroke-linecap="round"
  />
  
  <!-- 星星 -->
  <circle cx="22" cy="22" r="1" fill="#ffffff" />
  <circle cx="32" cy="18" r="1.2" fill="#ffffff" />
  <circle cx="42" cy="22" r="1" fill="#ffffff" />
  <circle cx="24" cy="30" r="1.3" fill="#ffffff" />
  <circle cx="40" cy="30" r="1" fill="#ffffff" />
  <circle cx="22" cy="44" r="1" fill="#ffffff" />
  <circle cx="32" cy="42" r="1.2" fill="#ffffff" />
  <circle cx="42" cy="44" r="1" fill="#ffffff" />
  
  <!-- 大星星 -->
  <circle cx="26" cy="26" r="1.8" fill="#ffffff" />
  <circle cx="38" cy="38" r="1.8" fill="#ffffff" />
  <circle cx="32" cy="32" r="2" fill="#ffffff" />
</svg> 